<svg xmlns="http://www.w3.org/2000/svg"
     width="800"
     height="800"
     x="0px"
     y="0px"
     version="1.1"
     xml:space="preserve">
    <style>
        .dark{
          fill: #4a274f;
        }
        .light{
          fill: #f0a07c;
        }
    </style>
    <circle cx="400" cy="400" r="388.26285" stroke-width="7.57396" class="dark" />
    <g id="sheep" class="light" display="inline" transform="matrix(-4.6569667,0,0,4.6569667,663.43226,159.59574)">
        <g id="body">
            <path d="m 111.004,28.233 c -1.343,-1.45 -3.084,-2.248 -4.903,-2.248 -0.229,0 -0.458,0.012 -0.691,0.027 -1.259,-1.997 -3.338,-3.245 -5.503,-3.245 -4.071,0 -7.235,2.756 -7.524,6.554 -0.147,1.933 0.598,3.985 1.994,5.493 1.271,1.373 2.92,2.129 4.645,2.131 1.26,2.433 3.634,4.011 6.143,4.011 4.301,0 7.646,-2.911 7.951,-6.92 0.153,-2.04 -0.635,-4.211 -2.112,-5.803"
                  display="inline" />
            <path d="m 109.392,44.661 c 0.204,-2.677 -0.832,-5.522 -2.771,-7.616 -1.492,-1.61 -3.355,-2.605 -5.334,-2.868 -0.227,-1.674 -0.938,-3.247 -2.06,-4.521 l -1.612,-1.419 -0.071,-0.048 c -1.24,-0.817 -2.623,-1.294 -4.104,-1.413 l -0.084,-0.006 -2.069,0.11 -0.084,0.018 c -0.008,0.002 -0.016,0.002 -0.022,0.005 -0.604,-1.697 -1.622,-3.254 -2.938,-4.472 -1.769,-1.638 -3.973,-2.54 -6.208,-2.54 -3.084,0 -5.961,1.11 -8.009,3.033 -1.799,-2.543 -4.513,-4.063 -7.403,-4.063 -5.243,0 -9.396,3.132 -10.459,7.739 -6.056,0.404 -11.904,3.894 -16.388,6.951 -3.022,2.062 -5.625,4.958 -7.327,8.154 -1.258,2.361 -3.896,8.18 -2.661,13.471 -2.661,1.437 -4.346,3.995 -4.578,7.029 -0.185,2.433 0.756,5.021 2.519,6.921 1.54,1.661 3.516,2.604 5.589,2.671 -0.113,2.333 0.7,4.659 2.251,6.421 l 1.702,1.5 0.07,0.048 c 1.311,0.862 2.767,1.363 4.327,1.488 l 0.086,0.007 2.188,-0.119 0.084,-0.016 c 0.281,-0.056 0.559,-0.122 0.833,-0.2 1.437,3.186 4.426,5.313 7.64,5.313 2.734,0 5.286,-1.014 7.069,-2.769 l 0.43,0.375 0.07,0.047 c 1.33,0.876 2.808,1.392 4.394,1.531 l 0.285,0.058 2.345,-0.128 0.084,-0.018 c 1.677,-0.324 3.182,-1.059 4.478,-2.186 0.654,-0.576 1.227,-1.249 1.699,-1.994 0.324,0.283 0.669,0.549 1.029,0.79 1.639,1.089 3.62,1.69 5.578,1.69 0.622,0 1.24,-0.063 1.836,-0.18 1.261,-0.253 3.732,-1.063 5.002,-2.511 0.493,-0.564 0.987,-1.129 1.48,-1.694 l 0.056,-0.063 0.046,-0.072 c 0.229,-0.347 0.435,-0.702 0.617,-1.069 0.681,0.186 1.376,0.277 2.08,0.277 5.606,0 9.962,-3.78 10.359,-8.989 0.073,-0.963 -0.016,-1.958 -0.26,-2.94 1.483,-0.375 2.822,-1.077 3.993,-2.096 1.845,-1.625 3.009,-3.967 3.197,-6.429 0.185,-2.433 -0.593,-4.88 -2.142,-6.768 1.859,-1.631 2.971,-3.871 3.168,-6.44"
                  display="inline" />
        </g>
        <g id="legs">
            <path d="m 41.304,79.929 c -0.907,0 -1.714,-0.388 -2.354,-0.988 -0.432,0.301 -0.731,0.785 -0.77,1.352 L 37.257,94.84 c -0.063,0.982 0.687,1.835 1.673,1.896 0.037,0.003 0.076,0.003 0.114,0.003 0.938,0 1.723,-0.728 1.783,-1.675 l 0.924,-14.546 c 0.015,-0.21 -0.017,-0.412 -0.07,-0.603 -0.125,0.008 -0.25,0.014 -0.377,0.014"
                  display="inline" />
            <path d="m 47.083,81.856 c -0.615,0.269 -1.061,0.86 -1.079,1.577 l -0.425,18.069 c -0.021,0.986 0.76,1.743 1.746,1.743 h 0.043 c 0.968,0 1.765,-0.692 1.788,-1.665 l 0.405,-17.199 c -1.133,-0.396 -2.02,-1.382 -2.478,-2.525"
                  display="inline" />
            <path d="m 80.315,81.924 c -0.622,0.218 -1.296,0.328 -1.996,0.328 -0.371,0 -0.685,-0.07 -1.019,-0.188 -0.136,0.253 -0.18,0.54 -0.18,0.844 v 8.589 c 0,0.984 0.751,1.787 1.738,1.787 0.989,0 1.74,-0.803 1.74,-1.787 V 82.908 C 80.6,82.544 80.501,82.206 80.315,81.924"
                  display="inline" />
            <path d="m 88.555,97.803 -1.28,-16.996 c -0.02,-0.26 -0.096,-0.5 -0.214,-0.716 -0.848,0.822 -2.042,1.62 -3.327,1.684 l 1.255,16.306 c 0.072,0.938 0.855,1.649 1.78,1.649 0.046,0 0.093,-0.002 0.14,-0.005 0.985,-0.076 1.72,-0.937 1.646,-1.922"
                  display="inline" />
        </g>
        <g id="head">
            <path d="M 63.542,32.249 C 59.562,22.142 56.75,13.029 38.493,8.433 28.005,5.794 18.822,8.307 11.879,12.39 4.938,16.476 -3.113,23.033 1.224,30.029 c 2.09,3.372 5.81,3.23 9.652,1.73 -1.795,6.046 -1.679,12.861 1.311,18.28 1.871,3.396 5.009,6.002 8.718,7.177 3.717,1.175 8.554,1.41 11.495,0.378 6.976,-2.452 10.158,-5.938 13.671,-11.492 1.024,-1.623 1.837,-3.352 2.487,-5.144 2.161,5.087 5.083,9.483 8.804,9.896 9.188,1.024 8.971,-11.519 6.18,-18.605"
                  display="inline" />
            <g class="dark" display="inline" opacity="0.8">
                <path d="m 20.542,52.114 c -0.215,-0.414 -0.336,-0.823 -0.413,-1.283 -0.026,-0.165 -0.248,-0.136 -0.271,0.015 -0.093,0.565 -0.116,1.086 0.239,1.568 0.182,0.253 0.586,-0.03 0.445,-0.3" />
                <path d="m 25.434,52.891 c -0.321,0.362 -0.703,0.664 -1.033,1.018 -0.185,0.197 0.006,0.487 0.256,0.392 0.485,-0.189 0.926,-0.441 1.341,-0.761 0.445,-0.344 -0.201,-1.063 -0.564,-0.649" />
            </g>
            <circle cx="39.750999" cy="32.188" r="2.9349999" class="dark" display="inline" />
            <circle cx="20.556" cy="28.016001" r="2.9349999" class="dark" display="inline" />
            <path d="M 47.794,5.367 C 43.937,1.412 37.919,0 33.576,0 32.75,0 31.957,0.05 31.215,0.146 28.412,0.513 24.634,1.719 22.436,4 c -1.257,1.305 -1.982,2.788 -2.098,4.291 -0.132,1.728 0.451,3.463 1.6,4.766 l 1.196,1.059 0.071,0.047 c 0.935,0.616 1.974,0.975 3.088,1.063 l 0.084,0.01 0.583,-0.028 c 0.98,2.824 3.535,4.847 6.323,4.847 1.879,0 3.613,-0.574 4.959,-1.631 0.878,1.085 2.05,1.944 3.369,2.399 0.772,0.267 1.582,0.449 2.407,0.449 h 10e-4 c 1.829,0 3.586,-0.708 4.946,-1.907 1.048,-0.933 1.764,-2.059 2.125,-3.251 1.258,-4.141 -0.879,-8.267 -3.296,-10.747"
                  display="inline" />
        </g>
    </g>
</svg>